<?xml version="1.0" standalone="no"?>
<!DOCTYPE svg PUBLIC "-//W3C//DTD SVG 20010904//EN"
 "http://www.w3.org/TR/2001/REC-SVG-20010904/DTD/svg10.dtd">
<svg version="1.0" xmlns="http://www.w3.org/2000/svg"
 width="984.000000pt" height="984.000000pt" viewBox="0 0 984.000000 984.000000"
 preserveAspectRatio="xMidYMid meet">
<metadata>
Created by potrace 1.14, written by Peter Selinger 2001-2017
</metadata>
<g transform="translate(0.000000,984.000000) scale(0.100000,-0.100000)"
fill="#000000" stroke="none">
<path d="M8805 9577 c-66 -22 -103 -45 -154 -97 -65 -65 -130 -193 -145 -285
-3 -16 -15 -75 -27 -130 -12 -55 -23 -111 -25 -125 -2 -14 -10 -59 -19 -100
-8 -41 -17 -84 -19 -95 -3 -11 -5 -20 -6 -20 -1 0 -3 -16 -6 -35 -2 -19 -13
-75 -24 -125 -10 -49 -22 -106 -25 -125 -3 -19 -8 -42 -10 -50 -4 -13 -10 -47
-20 -105 -2 -11 -6 -33 -10 -50 -18 -93 -36 -183 -40 -205 -2 -14 -20 -104
-39 -200 -19 -96 -37 -188 -40 -205 -2 -16 -9 -50 -15 -75 -5 -25 -12 -58 -15
-75 -3 -16 -15 -75 -26 -130 -12 -55 -23 -111 -25 -125 -2 -14 -11 -59 -20
-100 -9 -41 -18 -91 -21 -110 -3 -19 -10 -55 -16 -80 -5 -25 -12 -56 -14 -70
-2 -14 -9 -45 -14 -70 -5 -25 -12 -58 -15 -75 -3 -16 -8 -39 -10 -50 -2 -11
-6 -33 -9 -50 -3 -16 -8 -41 -11 -55 -3 -14 -8 -41 -11 -60 -3 -19 -8 -38 -9
-41 -2 -3 -7 -28 -11 -55 -3 -27 -8 -52 -10 -55 -2 -4 -6 -24 -10 -44 -3 -21
-8 -47 -10 -59 -3 -11 -7 -32 -10 -46 -4 -23 -13 -63 -21 -100 -2 -8 -6 -28
-8 -44 -2 -16 -22 -119 -45 -230 -22 -110 -42 -212 -44 -226 -3 -14 -5 -25 -6
-25 -10 0 -16 -201 -7 -225 4 -8 8 -29 10 -45 7 -49 54 -131 102 -179 41 -41
60 -53 137 -84 28 -12 160 -10 193 2 162 61 281 213 321 411 5 24 16 92 19
112 2 11 6 29 9 40 5 17 8 31 22 118 3 17 7 37 9 45 2 8 7 31 10 50 3 19 8 42
10 50 2 8 6 32 9 52 3 21 10 58 16 83 6 25 13 62 16 83 3 20 8 46 11 57 4 11
7 25 8 30 1 9 12 71 21 120 2 11 6 31 9 45 3 14 7 36 10 50 3 14 15 75 26 135
12 61 23 119 25 130 13 65 18 93 18 120 1 17 4 32 8 36 4 3 10 21 12 40 3 18
6 35 7 37 3 4 11 47 25 137 2 11 6 31 9 45 3 14 10 48 15 75 5 28 12 61 15 75
2 14 9 48 15 75 5 28 12 61 15 75 3 14 8 45 11 70 3 24 10 52 15 62 5 10 8 18
6 18 -3 0 0 21 5 48 5 26 11 58 14 72 2 14 11 59 19 100 9 41 17 86 20 100 3
14 7 36 10 50 13 60 16 77 20 110 2 19 5 36 6 38 2 2 3 6 12 52 13 66 17 84
23 124 3 22 7 43 9 46 2 3 6 21 9 40 9 52 15 85 37 195 12 55 22 114 24 130 2
17 4 30 5 30 3 0 16 66 25 130 4 22 9 49 12 60 3 11 7 29 9 40 2 11 5 31 8 45
9 38 15 71 22 110 4 19 9 44 12 55 8 35 4 142 -8 186 -14 51 -51 133 -62 137
-4 2 -8 9 -8 15 0 20 -101 107 -149 128 -57 26 -162 34 -216 16z"/>
<path d="M3600 8920 c0 -3 -12 -6 -27 -7 -30 0 -128 -11 -128 -13 0 -1 -11 -3
-25 -6 -48 -8 -215 -57 -242 -71 -15 -7 -29 -13 -30 -12 -4 1 -58 -21 -78 -31
-8 -5 -47 -25 -87 -45 -201 -101 -416 -312 -546 -537 -29 -50 -36 -55 -53 -38
-5 5 -30 16 -54 24 -25 8 -65 22 -90 31 -25 9 -54 19 -65 22 -40 9 -50 12 -50
13 0 1 -9 3 -20 5 -11 2 -36 7 -55 11 -19 3 -46 8 -60 10 -14 2 -50 8 -80 13
-67 11 -465 3 -465 -9 0 -2 -7 -3 -75 -15 -100 -18 -329 -101 -390 -142 -19
-13 -38 -23 -42 -23 -27 0 -240 -159 -292 -217 -6 -7 -29 -32 -51 -56 -56 -62
-68 -77 -111 -144 -58 -90 -94 -160 -87 -167 3 -3 1 -6 -5 -6 -7 0 -12 -4 -12
-9 0 -5 -5 -22 -12 -38 -6 -15 -12 -30 -13 -33 -1 -3 -5 -12 -8 -20 -7 -17
-45 -156 -53 -192 -18 -88 -27 -365 -14 -423 7 -29 4 -37 -21 -61 -37 -36 -54
-74 -73 -164 -8 -41 -18 -88 -21 -105 -4 -16 -7 -40 -8 -52 -1 -13 -5 -23 -10
-23 -4 0 -6 -4 -3 -8 3 -5 -6 -68 -19 -141 -14 -72 -27 -153 -30 -179 -4 -26
-9 -60 -12 -77 -3 -16 -7 -46 -9 -65 -1 -19 -3 -35 -4 -35 -1 0 -3 -13 -5 -30
-1 -16 -6 -55 -10 -85 -4 -30 -9 -68 -10 -85 -2 -16 -4 -30 -5 -30 -1 0 -3
-27 -5 -60 -3 -33 -7 -85 -9 -115 -17 -185 -21 -289 -20 -580 0 -283 4 -397
19 -525 4 -35 16 -147 20 -190 2 -16 4 -30 5 -30 1 0 3 -13 5 -30 6 -52 62
-316 85 -400 25 -93 86 -281 100 -310 9 -18 31 -73 35 -85 9 -32 99 -215 125
-255 14 -22 32 -53 40 -70 8 -16 23 -39 33 -49 9 -11 17 -23 17 -27 0 -7 110
-155 152 -205 97 -114 262 -258 398 -347 90 -58 92 -61 114 -169 2 -7 6 -20 9
-28 5 -13 21 -82 31 -131 2 -8 5 -21 8 -29 6 -15 36 -123 43 -150 1 -8 13 -46
26 -85 13 -38 24 -72 24 -75 2 -7 16 -42 25 -65 5 -11 12 -31 16 -45 12 -45
108 -232 131 -258 7 -7 13 -17 13 -22 0 -12 159 -170 171 -170 6 0 23 -8 37
-18 27 -19 103 -50 138 -56 11 -2 37 -9 59 -14 22 -6 69 -14 105 -18 80 -8
890 -12 895 -4 2 3 -8 19 -23 36 -37 41 -72 91 -72 104 0 5 -3 10 -7 10 -5 0
-13 10 -19 23 -6 12 -28 55 -48 94 l-36 73 -217 -2 c-240 -1 -356 6 -436 28
-28 8 -56 16 -62 17 -5 2 -32 14 -59 27 -97 49 -202 181 -262 331 -33 81 -101
288 -113 338 l-8 39 32 -9 c20 -6 43 -6 58 0 14 5 27 8 29 5 12 -11 378 -3
469 11 24 4 55 9 69 10 43 5 135 22 135 25 0 1 12 3 27 5 38 5 219 54 243 66
11 5 29 11 40 13 11 2 34 10 50 17 17 7 32 13 35 14 3 1 21 8 40 17 32 15 53
31 115 86 52 47 325 211 325 195 0 -3 7 0 15 7 8 7 63 29 122 49 93 32 155 61
173 81 3 3 32 27 65 52 33 25 71 55 85 67 196 168 363 338 497 507 95 120 193
262 276 399 48 79 66 111 122 224 34 69 69 142 78 161 37 87 71 171 73 180 0
3 6 18 13 34 6 16 23 66 37 110 14 45 28 88 31 96 7 17 6 15 28 100 8 36 18
74 21 85 3 11 7 27 9 35 1 8 5 22 8 30 3 8 8 31 11 50 3 19 7 46 10 60 3 14 7
41 10 60 3 19 8 46 10 60 3 14 7 47 11 75 7 54 7 55 27 59 26 5 118 50 118 58
0 4 6 8 14 8 18 0 109 99 141 153 141 242 44 558 -207 680 -171 82 -355 68
-506 -40 -59 -42 -142 -136 -142 -161 0 -7 -4 -12 -8 -12 -10 0 -38 -87 -48
-145 -14 -80 -6 -161 21 -236 9 -24 19 -52 22 -61 3 -10 9 -18 14 -18 5 0 9
-6 9 -13 0 -7 9 -23 20 -35 11 -12 20 -26 20 -32 0 -5 3 -10 8 -10 4 0 23 -15
42 -33 19 -17 53 -44 77 -59 35 -22 41 -31 37 -52 -2 -14 -6 -38 -9 -53 -2
-16 -7 -53 -11 -83 -3 -30 -10 -63 -15 -72 -6 -10 -8 -18 -5 -18 2 0 -1 -19
-6 -42 -5 -24 -11 -50 -13 -58 -2 -8 -8 -35 -15 -60 -7 -25 -14 -54 -17 -65
-5 -24 -8 -35 -15 -55 -3 -8 -23 -67 -43 -130 -21 -63 -42 -120 -47 -126 -5
-7 -10 -20 -12 -31 -9 -43 -135 -304 -196 -405 -11 -18 -23 -40 -27 -48 -11
-24 -125 -194 -140 -208 -7 -7 -13 -18 -13 -23 0 -5 -8 -17 -17 -27 -10 -10
-39 -46 -65 -80 -50 -65 -53 -68 -124 -147 -80 -88 -160 -168 -234 -235 -40
-36 -77 -70 -83 -76 -30 -26 -198 -153 -252 -189 -33 -22 -62 -42 -65 -46 -10
-10 -111 -69 -119 -69 -5 0 -11 -3 -13 -8 -9 -21 -369 -195 -427 -207 -9 -2
-29 -8 -46 -15 -16 -6 -30 -11 -30 -10 0 1 -13 -4 -30 -10 -16 -7 -37 -13 -45
-15 -8 -2 -44 -11 -80 -20 -81 -21 -95 -24 -145 -31 -52 -7 -80 -12 -80 -14 0
-1 -22 -3 -50 -5 -27 -2 -70 -6 -95 -9 -50 -6 -250 -7 -350 -2 -82 4 -182 46
-199 83 -7 14 -10 28 -7 30 3 3 0 17 -5 32 -10 25 -24 83 -35 146 -3 17 -9 41
-14 55 -6 14 -12 39 -14 55 -2 17 -6 37 -9 45 -4 8 -9 27 -12 43 -6 31 -12 61
-21 97 -6 25 -19 86 -28 125 -2 11 -9 40 -16 65 -7 25 -13 50 -14 55 -3 10
-29 126 -31 135 -1 3 -7 32 -14 65 -7 33 -17 65 -22 71 -5 6 -6 13 -3 16 3 3
0 26 -6 49 -7 24 -14 55 -17 69 -2 14 -10 46 -18 73 -8 26 -12 47 -9 47 3 0 0
8 -5 18 -5 9 -12 33 -15 52 -10 62 -17 93 -21 100 -2 4 -7 22 -10 41 -3 19
-11 52 -16 74 -6 22 -13 48 -15 58 -2 10 -5 26 -8 35 -3 9 -8 28 -10 42 -3 14
-11 45 -16 70 -11 43 -20 87 -35 155 -3 17 -8 38 -11 47 -3 9 -6 25 -8 35 -2
10 -14 59 -26 108 -12 50 -24 101 -27 115 -8 41 -11 55 -13 58 -4 4 -21 92
-22 109 0 5 -4 18 -9 31 -5 12 -11 33 -13 45 -2 12 -14 63 -26 112 -12 50 -24
101 -27 115 -2 14 -17 79 -33 145 -16 66 -31 131 -33 145 -3 14 -12 52 -20 85
-9 33 -19 75 -22 94 -3 19 -8 37 -10 41 -2 4 -7 22 -10 41 -3 19 -12 59 -20
89 -8 30 -16 66 -19 80 -3 14 -10 45 -16 70 -6 25 -12 54 -14 65 -2 11 -9 38
-14 60 -6 22 -13 51 -16 65 -3 14 -12 53 -20 88 -15 70 -15 158 0 185 10 17
131 18 2957 18 1620 1 2956 -3 2968 -6 59 -19 59 -51 4 -295 -14 -63 -27 -124
-29 -135 -3 -11 -9 -40 -15 -65 -5 -25 -13 -60 -16 -79 -3 -19 -7 -37 -9 -40
-2 -3 -7 -24 -10 -46 -4 -22 -9 -48 -12 -57 -6 -19 -10 -40 -25 -118 -15 -77
-17 -85 -19 -87 -3 -3 -4 -7 -13 -53 -12 -62 -15 -73 -42 -195 -15 -66 -29
-133 -31 -150 -3 -16 -9 -43 -14 -60 -8 -27 -22 -96 -36 -169 -2 -16 -12 -58
-20 -95 -23 -97 -24 -99 -29 -123 -3 -13 -9 -45 -15 -73 -10 -50 -17 -82 -25
-120 -3 -11 -7 -29 -9 -40 -2 -11 -19 -85 -36 -165 -18 -80 -34 -156 -37 -170
-2 -14 -9 -45 -15 -70 -6 -25 -12 -54 -13 -65 -2 -11 -13 -63 -25 -115 -12
-52 -24 -104 -26 -115 -2 -11 -6 -31 -9 -45 -18 -78 -18 -77 13 -61 9 5 35 17
57 26 84 36 264 126 273 138 6 7 13 28 16 48 3 20 10 49 16 65 6 16 11 30 10
32 0 1 2 17 5 35 3 17 8 41 10 52 2 11 4 21 5 23 3 3 3 3 20 77 7 33 15 65 16
70 1 6 5 24 8 40 3 17 10 45 15 63 5 17 8 32 6 32 -3 0 0 11 5 25 5 14 12 38
15 53 13 64 17 80 35 157 10 45 21 92 24 105 2 14 7 32 10 40 3 8 8 26 10 40
3 14 8 39 11 55 3 17 9 39 12 50 4 11 8 27 9 35 1 8 5 29 9 45 4 17 8 36 8 43
0 6 3 12 6 12 3 0 7 10 7 23 1 21 7 50 18 85 3 9 8 29 11 45 3 15 7 39 10 55
3 15 8 35 11 44 3 9 6 25 9 35 2 10 24 107 49 215 25 108 48 207 50 220 3 13
19 82 36 153 17 72 35 148 40 170 4 22 11 51 15 65 3 14 7 36 9 50 3 14 7 32
10 40 14 39 19 83 19 170 0 111 -5 137 -39 207 -19 40 -27 75 -30 140 -3 49
-12 124 -20 168 -8 44 -17 89 -18 100 -2 11 -4 20 -5 20 -2 0 -4 10 -7 22 -6
36 -55 175 -75 217 -10 22 -19 45 -19 52 0 7 -3 14 -7 16 -5 2 -16 19 -25 38
-56 111 -106 179 -192 259 -27 25 -58 54 -68 64 -10 9 -18 14 -18 10 0 -5 -4
-3 -8 3 -8 12 -142 97 -142 89 0 -2 -24 6 -52 19 -47 20 -82 31 -178 52 -35 8
-253 12 -265 5 -5 -3 -23 -6 -40 -7 -54 -3 -194 -36 -246 -58 -20 -8 -39 -12
-43 -9 -3 4 -6 1 -6 -6 0 -7 -3 -10 -8 -8 -4 3 -25 -3 -46 -14 -22 -10 -46
-19 -53 -19 -7 0 -13 -3 -13 -8 0 -9 -59 -36 -66 -29 -3 2 -7 17 -10 32 -3 16
-16 60 -30 99 -14 39 -27 76 -28 81 -15 55 -82 182 -151 285 -112 169 -274
324 -450 431 -57 35 -206 110 -225 114 -3 1 -50 15 -105 33 -55 17 -116 34
-135 37 -64 10 -105 16 -145 20 -22 2 -42 4 -45 5 -14 5 -250 4 -250 0z
m-3209 -3432 c1 -28 2 -33 28 -137 12 -46 26 -104 32 -130 13 -63 14 -70 53
-233 19 -79 37 -155 39 -168 3 -14 10 -45 17 -70 15 -55 20 -76 26 -115 3 -16
17 -75 31 -130 14 -55 27 -111 29 -124 3 -12 12 -53 20 -90 9 -36 17 -73 19
-81 2 -8 4 -15 5 -15 1 0 4 -13 6 -30 3 -16 21 -94 40 -173 18 -79 36 -153 39
-165 2 -12 9 -42 16 -67 6 -25 13 -56 15 -70 3 -14 16 -69 30 -123 13 -54 22
-102 19 -107 -3 -4 -1 -10 4 -12 5 -1 12 -23 16 -48 4 -24 11 -52 15 -61 5 -9
7 -19 4 -21 -2 -3 0 -16 5 -30 5 -14 12 -38 15 -54 2 -16 7 -39 10 -51 10 -40
46 -195 50 -217 2 -6 8 -31 15 -55 7 -23 10 -45 8 -48 -13 -12 -158 164 -241
291 -69 106 -169 310 -211 431 -9 28 -21 59 -26 70 -12 29 -40 125 -46 160 -3
17 -8 32 -11 35 -4 3 -8 14 -9 25 -3 30 -10 63 -27 135 -14 60 -24 117 -31
180 -2 14 -4 25 -5 25 -1 0 -4 18 -5 40 -2 22 -4 40 -5 40 -2 0 -10 64 -14
120 -2 22 -5 40 -6 40 -5 0 -13 282 -13 450 0 207 7 383 25 593 2 21 18 13 19
-10z"/>
<path d="M7380 4906 c-3 -2 -17 -7 -30 -9 -87 -16 -184 -93 -221 -174 -78
-172 -135 -500 -106 -612 10 -38 31 -81 40 -81 5 0 6 -4 3 -9 -3 -5 22 -34 55
-65 70 -65 72 -48 -24 -150 -165 -174 -332 -336 -347 -336 -6 0 -10 -7 -10
-15 0 -8 -5 -15 -11 -15 -7 0 -21 -10 -33 -23 -24 -26 -213 -180 -266 -217
-19 -13 -37 -27 -40 -30 -3 -3 -21 -17 -40 -30 -19 -13 -37 -27 -40 -30 -3 -3
-59 -41 -125 -85 -66 -44 -121 -83 -123 -87 -2 -5 -8 -8 -13 -8 -5 0 -33 -15
-62 -33 -28 -19 -78 -50 -109 -70 -32 -21 -58 -34 -58 -31 0 4 -8 0 -17 -8
-18 -15 -101 -61 -243 -134 -41 -22 -78 -43 -81 -47 -3 -5 -9 -8 -13 -8 -3 1
-50 -20 -104 -46 -53 -26 -99 -48 -102 -48 -3 -1 -32 -14 -65 -29 -144 -66
-168 -77 -179 -79 -6 -1 -13 -4 -16 -8 -3 -3 -97 -41 -210 -86 -269 -106 -278
-110 -395 -150 -55 -19 -105 -39 -112 -45 -7 -6 -13 -7 -13 -4 0 4 -9 2 -21
-4 -11 -6 -28 -13 -37 -15 -17 -4 -272 -90 -302 -102 -18 -7 -29 -10 -57 -17
-12 -2 -31 -10 -42 -16 -12 -6 -21 -9 -21 -6 0 3 -26 -4 -57 -15 -32 -11 -62
-22 -68 -23 -24 -7 -109 -49 -128 -64 -117 -94 -115 -174 8 -297 66 -67 179
-149 290 -211 137 -77 212 -116 227 -118 3 -1 10 -4 14 -9 9 -8 118 -61 178
-85 26 -10 70 -16 121 -16 78 0 118 6 175 26 8 3 51 18 95 34 44 15 103 38
132 51 28 12 54 23 57 23 2 0 52 22 111 50 59 27 111 50 116 50 5 0 9 5 9 11
0 5 5 7 10 4 6 -3 10 -1 10 4 0 6 3 10 8 9 7 -2 178 80 197 95 5 4 51 31 100
59 85 48 251 149 305 186 24 16 25 16 10 -3 -21 -28 -187 -200 -361 -374 -176
-176 -202 -218 -203 -331 -1 -41 2 -88 6 -105 4 -16 9 -39 12 -51 9 -42 59
-124 99 -165 45 -45 109 -81 175 -98 40 -11 158 -16 192 -8 135 32 224 83 328
185 23 23 47 42 53 42 6 0 7 5 4 10 -3 6 -3 10 2 10 4 0 21 11 37 25 16 14 32
25 35 25 6 0 67 55 165 149 l59 56 -30 -55 c-38 -71 -93 -230 -108 -310 -24
-130 -25 -146 -11 -180 23 -54 90 -115 138 -126 35 -9 92 -11 103 -5 6 3 18 7
29 8 59 9 359 275 476 422 19 24 40 48 45 55 6 6 24 29 40 51 17 22 32 42 35
45 15 15 110 161 110 169 0 5 4 11 8 13 5 2 41 59 81 128 40 69 76 132 81 140
11 17 122 241 157 315 l23 50 -5 -55 c-3 -30 -7 -66 -9 -80 -5 -36 -20 -134
-21 -140 -1 -3 -7 -32 -14 -65 -7 -33 -22 -96 -33 -140 -11 -44 -21 -84 -22
-90 -4 -20 -81 -250 -86 -255 -3 -3 -14 -30 -24 -60 -10 -30 -23 -59 -27 -65
-5 -5 -9 -17 -9 -27 0 -10 -4 -18 -10 -18 -5 0 -10 -7 -10 -15 0 -26 -185
-374 -209 -395 -13 -11 -43 -73 -32 -66 6 4 11 4 11 -1 0 -4 33 -9 73 -9 39
-1 131 -4 202 -7 281 -13 432 -20 480 -21 l49 -1 22 80 c12 44 34 125 49 180
15 55 29 110 30 122 5 36 14 44 35 30 11 -6 20 -17 20 -23 0 -7 6 -14 13 -17
13 -5 89 -151 102 -197 4 -14 11 -29 15 -35 7 -10 30 -89 32 -110 2 -20 36
-70 46 -68 6 1 25 5 44 8 18 3 44 8 58 10 14 3 36 7 50 10 14 3 39 8 55 11 17
4 41 8 55 10 14 1 36 5 50 8 14 4 39 8 55 11 17 2 39 6 50 9 11 2 27 5 36 5
18 1 28 19 35 61 3 14 7 36 10 50 28 134 38 478 20 725 -10 144 -15 200 -16
200 -1 0 -3 25 -5 55 -3 30 -7 75 -10 100 -3 25 -7 65 -9 90 -3 25 -5 45 -6
45 0 0 -3 18 -5 40 -4 48 -13 136 -20 185 -13 103 -16 129 -20 175 l-4 50 50
-105 c44 -92 66 -141 112 -250 6 -14 11 -27 12 -30 1 -3 5 -12 8 -20 41 -97
125 -353 133 -405 3 -16 8 -37 11 -45 10 -26 32 -121 39 -175 2 -16 7 -37 10
-45 3 -8 8 -35 10 -60 3 -25 7 -56 9 -70 12 -62 20 -209 19 -371 l-1 -175 71
13 c39 7 85 16 101 19 50 8 79 14 105 19 13 2 42 7 65 11 120 17 288 76 336
118 11 9 23 16 27 16 15 0 89 86 112 130 19 36 24 63 26 130 1 47 -2 90 -6 95
-4 6 -10 29 -14 53 -3 24 -8 47 -11 51 -2 5 -7 26 -10 47 -3 22 -9 46 -12 54
-8 21 -23 79 -29 113 -5 29 -114 357 -150 452 -11 28 -23 53 -29 57 -5 4 -7 8
-3 8 6 0 -32 93 -98 240 -45 100 -197 406 -250 500 -44 80 -86 157 -123 225
-9 16 -20 34 -24 40 -7 9 -117 197 -172 295 -11 19 -24 39 -28 45 -21 28 -127
207 -127 215 0 6 -3 10 -7 10 -7 0 -45 57 -48 70 0 3 -8 16 -17 30 -65 101
-138 222 -138 229 0 5 -7 14 -15 21 -24 20 -17 34 23 51 20 9 58 26 84 38 26
11 50 21 53 21 7 0 44 30 70 58 34 34 61 150 79 332 3 25 8 77 12 115 10 105
6 216 -9 231 -4 4 -7 15 -7 24 0 40 -118 166 -163 174 -6 1 -22 7 -34 14 -24
13 -164 47 -233 56 -25 3 -58 8 -75 11 -16 3 -48 7 -70 9 -22 3 -50 7 -62 10
-12 2 -46 7 -75 10 -29 4 -64 8 -78 11 -23 4 -52 9 -142 21 -24 3 -83 12 -133
19 -49 8 -108 17 -130 20 -22 2 -56 7 -75 10 -59 10 -175 17 -180 11z"/>
</g>
</svg>
